<svg xmlns="http://www.w3.org/2000/svg" width="660" height="472" fill="none"><path stroke="#00FFF2" stroke-width="4" d="m299.726 53.512 42.794 16.242.86.326.807-.44 40.186-21.914-16.242 42.794-.326.86.44.807 21.914 40.186-42.794-16.242-.86-.326-.807.44-40.186 21.914 16.242-42.794.326-.86-.44-.807-21.914-40.186ZM282.606 336.582l43.787 16.619.86.326.808-.44 41.118-22.423-16.618 43.788-.327.859.441.808 22.423 41.118-43.788-16.618-.86-.326-.807.44-41.119 22.423 16.619-43.788.326-.86-.44-.807-22.423-41.119ZM61.61 205.233l35.707 30.306.702.595.908-.145 46.25-7.38-30.306 35.708-.595.702.144.908 7.38 46.25-35.708-30.306-.701-.595-.908.144-46.25 7.38 30.306-35.708.595-.701-.145-.908-7.38-46.25ZM539.701 175.074l34.661 34.145.655.646.917-.078 48.482-4.086-34.144 34.661-.646.655.077.917 4.086 48.482-34.661-34.144-.655-.646-.916.077-48.483 4.086 34.145-34.66.646-.656-.078-.916-4.086-48.483Z"/><circle cx="130" cy="122" r="66" stroke="#FF0" stroke-width="6"/><circle cx="543.5" cy="108.5" r="49.5" stroke="#FF0" stroke-width="6"/><circle cx="88" cy="375" r="43" stroke="#FF0" stroke-width="6"/><circle cx="578" cy="368" r="55" stroke="#FF0" stroke-width="6"/></svg>